<svg xmlns="http://www.w3.org/2000/svg" xmlns:xlink="http://www.w3.org/1999/xlink" width="150" height="35" viewBox="0 0 150 35"><g transform="scale(1,-1) translate(0,-35)"><path d="M 5.473606 8.901808 Q 5.473606 9.805704 5.662632 10.680443 Q 5.851658 11.555182 6.308469 12.225815 Q 6.765281 12.896448 7.521384 13.319239 Q 8.277486 13.742029 9.411640 13.742029 Q 10.545794 13.742029 11.317648 13.319239 Q 12.089503 12.896448 12.546315 12.225815 Q 13.003127 11.555182 13.192152 10.680443 Q 13.381178 9.805704 13.381178 8.901808 Q 13.381178 7.997911 13.192152 7.137751 Q 13.003127 6.277591 12.546315 5.592379 Q 12.089503 4.907167 11.317648 4.498955 Q 10.545794 4.090744 9.411640 4.090744 Q 8.277486 4.090744 7.521384 4.498955 Q 6.765281 4.907167 6.308469 5.592379 Q 5.851658 6.277591 5.662632 7.137751 Q 5.473606 7.997911 5.473606 8.901808 Z M 1.000000 8.901808 Q 1.000000 7.094014 1.598581 5.636116 Q 2.197162 4.178218 3.299812 3.143110 Q 4.402461 2.108003 5.946170 1.554001 Q 7.489880 1.000000 9.411640 1.000000 Q 11.333400 1.000000 12.892862 1.554001 Q 14.452323 2.108003 15.554973 3.143110 Q 16.657622 4.178218 17.256203 5.636116 Q 17.854784 7.094014 17.854784 8.901808 Q 17.854784 10.709601 17.256203 12.182078 Q 16.657622 13.654555 15.554973 14.689663 Q 14.452323 15.724771 12.892862 16.293351 Q 11.333400 16.861931 9.411640 16.861931 Q 7.489880 16.861931 5.946170 16.293351 Q 4.402461 15.724771 3.299812 14.689663 Q 2.197162 13.654555 1.598581 12.182078 Q 1.000000 10.709601 1.000000 8.901808 Z M 20.879194 22.197838 L 20.879194 1.379054 L 25.352800 1.379054 L 25.352800 22.197838 Z M 40.443345 8.960124 Q 40.443345 8.027069 40.254320 7.152330 Q 40.065294 6.277591 39.624234 5.592379 Q 39.183175 4.907167 38.442824 4.498955 Q 37.702474 4.090744 36.599825 4.090744 Q 35.560184 4.090744 34.819833 4.513534 Q 34.079483 4.936325 33.591167 5.621537 Q 33.102851 6.306749 32.882321 7.181488 Q 32.661791 8.056227 32.661791 8.930966 Q 32.661791 9.864020 32.866569 10.724180 Q 33.071346 11.584340 33.528158 12.254973 Q 33.984970 12.925606 34.741073 13.333818 Q 35.497175 13.742029 36.599825 13.742029 Q 37.702474 13.742029 38.427072 13.333818 Q 39.151670 12.925606 39.608482 12.269552 Q 40.065294 11.613498 40.254320 10.753338 Q 40.443345 9.893178 40.443345 8.960124 Z M 40.506354 3.303479 L 40.506354 1.379054 L 44.759430 1.379054 L 44.759430 22.197838 L 40.285824 22.197838 L 40.285824 14.616768 L 40.222816 14.616768 Q 39.466713 15.724771 38.159286 16.293351 Q 36.851859 16.861931 35.402662 16.861931 Q 33.606919 16.861931 32.252235 16.205877 Q 30.897552 15.549823 29.999680 14.470978 Q 29.101808 13.392134 28.644997 11.977973 Q 28.188185 10.563811 28.188185 9.047597 Q 28.188185 7.473067 28.644997 6.015169 Q 29.101808 4.557271 29.999680 3.434690 Q 30.897552 2.312108 32.283740 1.656054 Q 33.669928 1.000000 35.497175 1.000000 Q 37.103893 1.000000 38.379816 1.539422 Q 39.655739 2.078845 40.443345 3.303479 Z" transform="scale(1.000000,1.000000) translate(39.003631,5.901255)" fill="#fd910a" opacity="1.000000"></path><path d="M 1.000000 16.453720 L 1.000000 1.379054 L 5.473606 1.379054 L 5.473606 9.280861 Q 5.473606 11.584340 6.292717 12.590290 Q 7.111828 13.596239 8.939076 13.596239 Q 10.545794 13.596239 11.175879 12.677764 Q 11.805964 11.759288 11.805964 9.893178 L 11.805964 1.379054 L 16.279571 1.379054 L 16.279571 10.651285 Q 16.279571 12.050867 16.011784 13.202607 Q 15.743998 14.354346 15.082408 15.156190 Q 14.420819 15.958034 13.270913 16.409983 Q 12.121007 16.861931 10.325264 16.861931 Q 8.907572 16.861931 7.552888 16.264193 Q 6.198204 15.666455 5.347589 14.354346 L 5.253076 14.354346 L 5.253076 16.453720 Z M 24.281655 18.786357 L 24.281655 22.197838 L 19.808049 22.197838 L 19.808049 18.786357 Z M 19.808049 16.453720 L 19.808049 1.379054 L 24.281655 1.379054 L 24.281655 16.453720 Z M 38.899636 11.146971 L 43.278730 11.146971 Q 43.184217 12.604869 42.522627 13.669134 Q 41.861038 14.733400 40.805645 15.447770 Q 39.750252 16.162140 38.411320 16.512036 Q 37.072389 16.861931 35.623192 16.861931 Q 33.638423 16.861931 32.094714 16.249614 Q 30.551005 15.637297 29.479860 14.543873 Q 28.408715 13.450450 27.857390 11.948815 Q 27.306065 10.447180 27.306065 8.697702 Q 27.306065 7.006540 27.904646 5.592379 Q 28.503227 4.178218 29.574372 3.157689 Q 30.645518 2.137161 32.173475 1.568580 Q 33.701432 1.000000 35.528679 1.000000 Q 38.773619 1.000000 40.852901 2.574530 Q 42.932183 4.149060 43.373243 7.152330 L 39.057158 7.152330 Q 38.836628 5.752748 37.970260 4.921746 Q 37.103893 4.090744 35.497175 4.090744 Q 34.457534 4.090744 33.732936 4.528113 Q 33.008338 4.965483 32.583030 5.650695 Q 32.157723 6.335907 31.968697 7.181488 Q 31.779671 8.027069 31.779671 8.843492 Q 31.779671 9.689073 31.968697 10.549232 Q 32.157723 11.409392 32.614534 12.123762 Q 33.071346 12.838132 33.795945 13.290081 Q 34.520543 13.742029 35.591688 13.742029 Q 38.458576 13.742029 38.899636 11.146971 Z M 56.857070 10.534653 L 49.579584 10.534653 Q 49.611088 10.972023 49.784361 11.526024 Q 49.957635 12.080025 50.382943 12.575711 Q 50.808250 13.071396 51.517096 13.406713 Q 52.225942 13.742029 53.297087 13.742029 Q 54.935309 13.742029 55.738668 12.925606 Q 56.542027 12.109183 56.857070 10.534653 Z M 49.579584 7.910437 L 61.330676 7.910437 Q 61.456693 9.659915 61.015633 11.263602 Q 60.574574 12.867290 59.582189 14.121083 Q 58.589805 15.374875 57.046096 16.118403 Q 55.502386 16.861931 53.423105 16.861931 Q 51.564353 16.861931 50.036396 16.249614 Q 48.508438 15.637297 47.405789 14.573031 Q 46.303140 13.508766 45.704558 12.050867 Q 45.105977 10.592969 45.105977 8.901808 Q 45.105977 7.152330 45.688806 5.694432 Q 46.271635 4.236534 47.342780 3.186847 Q 48.413926 2.137161 49.957635 1.568580 Q 51.501344 1.000000 53.423105 1.000000 Q 56.195480 1.000000 58.148745 2.166318 Q 60.102010 3.332637 61.047138 6.044327 L 57.109104 6.044327 Q 56.888574 5.344536 55.911942 4.717640 Q 54.935309 4.090744 53.580626 4.090744 Q 51.690370 4.090744 50.682233 4.994641 Q 49.674096 5.898538 49.579584 7.910437 Z" transform="scale(1.000000,1.000000) translate(86.620579,5.901255)" fill="#0b2330" opacity="1.000000"></path><path d="M 18.939862 1.020524 L 19.806362 1.081524 L 20.660262 1.181924 L 21.500462 1.320724 L 22.325962 1.497124 L 23.135562 1.709924 L 23.928362 1.958124 L 24.703162 2.240924 L 25.458962 2.557124 L 26.194562 2.905824 L 26.909062 3.286124 L 27.601362 3.696824 L 28.914862 4.605924 L 30.126462 5.625124 L 30.691462 6.173524 L 31.227662 6.746524 L 31.734162 7.343024 L 32.209862 7.962124 L 32.653662 8.602824 L 33.064562 9.264124 L 33.441262 9.945024 L 33.782962 10.644524 L 34.088462 11.361624 L 34.356762 12.095324 L 34.586662 12.844724 L 34.777162 13.608724 L 34.927162 14.386324 L 35.035762 15.176624 L 35.101562 15.978524 L 35.123762 16.791124 L 35.101562 17.603824 L 35.035762 18.405724 L 34.927162 19.196024 L 34.777162 19.973624 L 34.586662 20.737624 L 34.356762 21.487024 L 34.088462 22.220724 L 33.782962 22.937824 L 33.441262 23.637324 L 33.064562 24.318224 L 32.653662 24.979524 L 32.209862 25.620224 L 31.734162 26.239324 L 31.227662 26.835824 L 30.691462 27.408824 L 30.126462 27.957224 L 28.914862 28.976424 L 27.601362 29.885524 L 26.909062 30.296224 L 26.194562 30.676524 L 25.458962 31.025224 L 24.703162 31.341424 L 23.928362 31.624224 L 23.135562 31.872424 L 22.325962 32.085224 L 21.500462 32.261624 L 20.660262 32.400424 L 19.806362 32.500824 L 18.939862 32.561824 L 18.061862 32.582424 L 17.183862 32.561824 L 16.317362 32.500824 L 15.463562 32.400424 L 14.623262 32.261624 L 13.797862 32.085224 L 12.988162 31.872424 L 12.195462 31.624224 L 11.420562 31.341424 L 10.664862 31.025224 L 9.929162 30.676524 L 9.214662 30.296224 L 8.522362 29.885524 L 7.208862 28.976424 L 5.997262 27.957224 L 5.432362 27.408824 L 4.896062 26.835824 L 4.389562 26.239324 L 3.913862 25.620224 L 3.470062 24.979524 L 3.059262 24.318224 L 2.682462 23.637324 L 2.340762 22.937824 L 2.035262 22.220724 L 1.767062 21.487024 L 1.537062 20.737624 L 1.346562 19.973624 L 1.196562 19.196024 L 1.088062 18.405724 L 1.022162 17.603824 L 0.999962 16.791124 L 1.022162 15.978524 L 1.088062 15.176624 L 1.196562 14.386324 L 1.346562 13.608724 L 1.537062 12.844724 L 1.767062 12.095324 L 2.035262 11.361624 L 2.340762 10.644524 L 2.682462 9.945024 L 3.059262 9.264124 L 3.470062 8.602824 L 3.913862 7.962124 L 4.389562 7.343024 L 4.896062 6.746524 L 5.432362 6.173524 L 5.997262 5.625124 L 7.208862 4.605924 L 8.522362 3.696824 L 9.214662 3.286124 L 9.929162 2.905824 L 10.664862 2.557124 L 11.420562 2.240924 L 12.195462 1.958124 L 12.988162 1.709924 L 13.797862 1.497124 L 14.623262 1.320724 L 15.463562 1.181924 L 16.317362 1.081524 L 17.183862 1.020524 L 18.061862 0.999924 Z M 18.355362 5.903924 L 17.725762 5.929924 L 17.112362 5.981824 L 16.515262 6.059724 L 15.934462 6.163624 L 15.369762 6.293424 L 14.821462 6.449224 L 14.289262 6.631024 L 14.029362 6.731724 L 13.773862 6.838024 L 13.278162 7.065324 L 12.802662 7.312224 L 12.347362 7.578824 L 11.912162 7.864924 L 11.497262 8.170624 L 11.102462 8.495924 L 10.727862 8.840824 L 10.548062 9.020624 L 10.373462 9.204824 L 10.039762 9.585224 L 9.726662 9.981624 L 9.434262 10.393924 L 9.162562 10.822124 L 8.911462 11.266324 L 8.681062 11.726524 L 8.471362 12.202624 L 8.374262 12.446624 L 8.282762 12.693824 L 8.117362 13.195424 L 7.975562 13.706624 L 7.857462 14.227424 L 7.762962 14.757724 L 7.692062 15.297524 L 7.644762 15.847024 L 7.621162 16.406024 L 7.618162 16.689124 L 7.621162 16.979424 L 7.644762 17.552024 L 7.692062 18.114224 L 7.762962 18.666024 L 7.857462 19.207224 L 7.975562 19.738024 L 8.117362 20.258324 L 8.282762 20.768124 L 8.374262 21.019124 L 8.471362 21.266724 L 8.681062 21.750124 L 8.911462 22.217524 L 9.162562 22.669024 L 9.434262 23.104624 L 9.726662 23.524224 L 10.039762 23.927824 L 10.373462 24.315624 L 10.548062 24.503424 L 10.727862 24.686824 L 11.102462 25.038524 L 11.497262 25.370224 L 11.912162 25.681824 L 12.347362 25.973424 L 12.802662 26.244924 L 13.278162 26.496424 L 13.773862 26.727924 L 14.029362 26.836124 L 14.289262 26.938524 L 14.821462 27.123424 L 15.369762 27.282024 L 15.934462 27.414124 L 16.515262 27.519824 L 17.112362 27.599124 L 17.725762 27.651924 L 18.355362 27.678324 L 18.676162 27.681624 L 19.107662 27.674124 L 19.960262 27.614024 L 20.799062 27.493724 L 21.624062 27.313324 L 22.031462 27.200524 L 22.432062 27.073224 L 23.203962 26.776224 L 23.936462 26.422624 L 24.629562 26.012624 L 24.961262 25.786424 L 25.281062 25.546324 L 25.877662 25.025124 L 26.417162 24.449224 L 26.899562 23.818724 L 27.119362 23.482924 L 27.321662 23.133924 L 27.664262 22.397724 L 27.924162 21.610424 L 28.101362 20.772124 L 28.158962 20.333824 L 23.433362 20.333824 L 23.375062 20.549124 L 23.239162 20.959124 L 23.077662 21.341824 L 22.890662 21.697224 L 22.677962 22.025224 L 22.439762 22.325924 L 22.175862 22.599324 L 21.886462 22.845324 L 21.732162 22.958124 L 21.408662 23.163124 L 20.711662 23.491124 L 19.947662 23.709824 L 19.116762 23.819124 L 18.676162 23.832824 L 18.266662 23.823524 L 17.494762 23.748724 L 16.785962 23.599324 L 16.140162 23.375224 L 15.840862 23.235124 L 15.556262 23.079224 L 15.028562 22.729424 L 14.556062 22.328424 L 14.138562 21.876524 L 13.950562 21.631424 L 13.775562 21.375624 L 13.462462 20.838024 L 13.198662 20.265724 L 12.984062 19.658924 L 12.895162 19.342524 L 12.817662 19.020424 L 12.693562 18.368024 L 12.610862 17.704624 L 12.569562 17.030324 L 12.564362 16.689124 L 12.569562 16.362224 L 12.610862 15.715324 L 12.693562 15.077424 L 12.817662 14.448724 L 12.895162 14.137824 L 12.984062 13.831824 L 13.198662 13.243224 L 13.462462 12.685624 L 13.775562 12.158924 L 13.950562 11.907224 L 14.138562 11.665524 L 14.556062 11.219024 L 15.028562 10.821724 L 15.556262 10.473724 L 15.840862 10.318124 L 16.140162 10.178024 L 16.785962 9.953824 L 17.494762 9.804424 L 18.266662 9.729724 L 18.676162 9.720324 L 18.978962 9.724824 L 19.558362 9.760824 L 20.102862 9.832824 L 20.612262 9.940824 L 21.086862 10.084824 L 21.526462 10.264724 L 21.931062 10.480724 L 22.300762 10.732624 L 22.472462 10.872124 L 22.635462 11.020124 L 22.935262 11.340424 L 23.200062 11.693024 L 23.429962 12.078024 L 23.624862 12.495324 L 23.784862 12.945024 L 23.909962 13.427024 L 23.999962 13.941424 L 24.031962 14.210724 L 19.054262 14.210724 L 19.054262 17.622224 L 28.505562 17.622224 L 28.505562 6.367224 L 25.355162 6.367224 L 24.851062 8.729024 L 24.684562 8.535924 L 24.344862 8.171824 L 23.996362 7.837424 L 23.638962 7.532624 L 23.272762 7.257524 L 22.897662 7.011924 L 22.513662 6.795924 L 22.120862 6.609624 L 21.921162 6.527524 L 21.518962 6.380624 L 20.711662 6.145524 L 19.900462 5.988824 L 19.085262 5.910424 L 18.676162 5.900724 Z" transform="scale(1.000000,1.000000) translate(1.020738,0.708776)" fill="#fd910a" opacity="1.000000"></path></g></svg>